/* XPM */
static char *_49abc8f302241a2e473577d24cab28d[] = {
/* columns rows colors chars-per-pixel */
"32 32 160 2 ",
"   c #13131A",
".  c #13141A",
"X  c #14141A",
"o  c #15151A",
"O  c #16161A",
"+  c #17171A",
"@  c #17181A",
"#  c #18181A",
"$  c #19191A",
"%  c gray10",
"&  c #1B1B1A",
"*  c #1C1C1A",
"=  c #1D1C1A",
"-  c #1D1D1A",
";  c #20201A",
":  c #21201A",
">  c #21211A",
",  c #23221A",
"<  c #23231A",
"1  c #24231A",
"2  c #24241A",
"3  c #26251A",
"4  c #27261A",
"5  c #28281A",
"6  c #2A291A",
"7  c #2A2A1A",
"8  c #2B2A1A",
"9  c #2C2B1A",
"0  c #2F2E1A",
"q  c #302F1A",
"w  c #32311A",
"e  c #34331A",
"r  c #363519",
"t  c #373519",
"y  c #383619",
"u  c #393719",
"i  c #3C3B19",
"p  c #413F19",
"a  c #434119",
"s  c #444219",
"d  c #454219",
"f  c #454319",
"g  c #484519",
"h  c #4B4819",
"j  c #4B4919",
"k  c #4C4919",
"l  c #4C4A19",
"z  c #4F4C19",
"x  c #535119",
"c  c #565319",
"v  c #575319",
"b  c #585519",
"n  c #595619",
"m  c #5A5619",
"M  c #5C5819",
"N  c #5E5B19",
"B  c #5F5B19",
"V  c #605C19",
"C  c #615D19",
"Z  c #625E19",
"A  c #646119",
"S  c #666219",
"D  c #666319",
"F  c #676319",
"G  c #6A6619",
"H  c #6E6918",
"J  c #6F6B18",
"K  c #736F18",
"L  c #767118",
"P  c #767218",
"I  c #777218",
"U  c #797518",
"Y  c #7B7618",
"T  c #807B18",
"R  c #817C18",
"E  c #827D18",
"W  c #837E18",
"Q  c #847E18",
"!  c #847F18",
"~  c #868018",
"^  c #868118",
"/  c #878218",
"(  c #888318",
")  c #8A8518",
"_  c #8D8718",
"`  c #8D8818",
"'  c #8E8818",
"]  c #908A18",
"[  c #928C18",
"{  c #938D18",
"}  c #9A9418",
"|  c #9E9818",
" . c #A69F17",
".. c #A09A18",
"X. c #A7A017",
"o. c #A8A117",
"O. c #A9A117",
"+. c #AAA317",
"@. c #ABA417",
"#. c #ACA517",
"$. c #AFA817",
"%. c #B0A817",
"&. c #B2AB17",
"*. c #B5AD17",
"=. c #B5AE17",
"-. c #B9B117",
";. c #BFB617",
":. c #C3BA17",
">. c #C5BC17",
",. c #C6BD17",
"<. c #C6BE17",
"1. c #CAC117",
"2. c #CCC317",
"3. c #CFC617",
"4. c #D1C817",
"5. c #D2C917",
"6. c #D3C917",
"7. c #D3CA17",
"8. c #D4CB17",
"9. c #D5CB17",
"0. c #D8CE17",
"q. c #D9D017",
"w. c #DBD116",
"e. c #DAD117",
"r. c #DDD316",
"t. c #DFD516",
"y. c #E0D616",
"u. c #E2D816",
"i. c #E4DA16",
"p. c #E5DB16",
"a. c #E6DB16",
"s. c #E7DC16",
"d. c #E7DD16",
"f. c #E8DD16",
"g. c #E9DE16",
"h. c #EAE016",
"j. c #EBE016",
"k. c #ECE216",
"l. c #EDE316",
"z. c #EFE416",
"x. c #EFE516",
"c. c #F0E616",
"v. c #F1E616",
"b. c #F2E716",
"n. c #F3E816",
"m. c #F4E916",
"M. c #F5EA16",
"N. c #F6EB16",
"B. c #F7EB16",
"V. c #F6EB17",
"C. c #F7EC16",
"Z. c #F8EC16",
"A. c #F8ED16",
"S. c #F9ED16",
"D. c #F9EE16",
"F. c #FAEE16",
"G. c #FAEF16",
"H. c #FBF016",
"J. c #FCF116",
"K. c None",
/* pixels */
"K.K.K.K.K.K.K.K.K.K.K.K.V.V.N.N.N.N.N.N.K.K.K.K.K.K.K.K.K.K.K.K.",
"K.K.K.K.K.K.K.K.K.N.V.V.V.V.N.N.N.N.N.N.N.N.V.K.K.K.K.K.K.K.K.K.",
"K.K.K.K.K.K.K.V.N.N.N.N.N.N.N.N.N.N.N.N.N.N.N.N.V.K.K.K.K.K.K.K.",
"K.K.K.K.K.K.V.V.N.N.N.N.N.N.N.N.N.N.N.N.N.N.N.N.V.V.K.K.K.K.K.K.",
"K.K.K.K.K.V.V.V.N.N.N.C.C.C.N.N.N.N.N.N.N.N.N.N.N.N.V.K.K.K.K.K.",
"K.K.K.K.V.V.N.N.N.A.A.A.A.A.A.A.A.A.N.N.N.N.N.N.C.V.V.N.K.K.K.K.",
"K.K.K.V.N.N.N.N.A.y.<.<.<.<.<.<.<.3.y.n.A.N.A.x.s.C.V.V.V.K.K.K.",
"K.K.V.N.N.N.N.N.A.' ; ; 3 1 3 3 3 8 i G -.N.1.D x 4.F.V.V.V.K.K.",
"K.K.V.V.N.N.N.N.A.( o # # # # # # + o y ~ T w o o l 4.A.C.N.K.K.",
"K.V.V.V.N.N.N.N.A.( o # # # # o o 8 J T p # @ # # o m s.C.N.V.K.",
"K.N.V.N.N.N.N.N.A.( o # # # v U E #.D - o # # # - m -.v.V.V.V.K.",
"K.N.N.N.N.N.N.N.A.( # # # - %.H.A.N.O.4 # # # a ..j.A.N.V.V.V.K.",
"V.V.N.N.N.N.N.N.H.( o # y U 4.A.A.B.N.V o w K ' p.A.N.N.N.N.N.N.",
"V.V.N.N.N.N.N.N.A.~ 4 G E g #.A.N.N.C._ V E j 0 4.A.N.N.N.N.N.N.",
"N.N.N.N.N.N.N.N.A.=.! m ; # O.H.N.N.N.=.V 3 o q 0.A.N.N.N.N.N.N.",
"V.N.N.N.N.N.C.A.9.I 8 o # # O.C.A.v.=.r o # o l j.C.N.N.N.N.N.N.",
"V.N.N.N.F.F.p.[ y O # $ # @ V ;.| m 3 @ # # # { A.B.N.N.N.N.N.N.",
"N.N.N.N.x.#.g $ O $ $ O ; N ! z - o # # # o N p.A.N.N.N.N.N.N.N.",
"N.N.N.N.g.N O $ $ # = j ! F 3 o # o o o : G r.C.N.N.N.N.N.N.N.N.",
"N.N.N.V.F.w.x O O y U L r + 2 8 8 w s K =.x.A.N.N.N.N.N.N.N.N.N.",
"K.V.V.V.N.A.w.V L } s & @ # [ 9.4.w.s.N.A.C.N.N.N.N.N.N.N.N.N.K.",
"K.V.N.N.N.N.A.k.V.( o # # - @.J.A.F.C.N.N.C.N.N.N.N.N.N.N.N.V.K.",
"K.V.N.N.N.N.N.N.A.( o # # # O.H.V.N.N.N.N.N.N.N.N.N.N.N.V.V.V.K.",
"K.K.N.N.N.N.N.A.A.( # # @ ; %.A.N.N.N.N.N.N.N.N.N.N.N.V.V.V.K.K.",
"K.K.V.V.V.V.N.N.A.( o # f O.l.C.N.N.N.N.N.N.N.N.N.N.N.N.N.V.K.K.",
"K.K.K.V.V.V.N.N.A.~ 0 ( y.A.C.N.N.N.N.N.N.N.N.N.N.N.V.V.N.K.K.K.",
"K.K.K.K.N.N.N.N.C.:.2.C.A.N.N.N.N.N.N.N.N.N.N.N.N.N.N.V.K.K.K.K.",
"K.K.K.K.K.N.N.N.N.C.A.N.C.N.N.N.N.N.N.N.N.N.N.N.N.N.N.K.K.K.K.K.",
"K.K.K.K.K.K.V.V.V.V.N.N.N.N.N.N.N.N.N.N.V.N.N.N.V.V.K.K.K.K.K.K.",
"K.K.K.K.K.K.K.V.V.V.N.N.N.N.N.N.N.N.N.N.V.V.N.N.V.K.K.K.K.K.K.K.",
"K.K.K.K.K.K.K.K.K.V.V.V.N.N.N.N.N.N.N.N.V.V.V.K.K.K.K.K.K.K.K.K.",
"K.K.K.K.K.K.K.K.K.K.K.K.N.N.N.V.V.N.N.N.K.K.K.K.K.K.K.K.K.K.K.K."
};
