/* XPM */
static char *_dfbb23451cb41d2a2a4ab42093b4c63[] = {
/* columns rows colors chars-per-pixel */
"64 64 234 2 ",
"   c #14141A",
".  c #14151A",
"X  c #15151A",
"o  c #16161A",
"O  c #16171A",
"+  c #17171A",
"@  c #17181A",
"#  c #18181A",
"$  c #18191A",
"%  c #19191A",
"&  c #1A191A",
"*  c gray10",
"=  c #1B1B1A",
"-  c #1C1C1A",
";  c #1D1D1A",
":  c #1E1E1A",
">  c #1F1E1A",
",  c #1F1F1A",
"<  c #20201A",
"1  c #21201A",
"2  c #21211A",
"3  c #22221A",
"4  c #23221A",
"5  c #24231A",
"6  c #24241A",
"7  c #25241A",
"8  c #25251A",
"9  c #26251A",
"0  c #26261A",
"q  c #28271A",
"w  c #28281A",
"e  c #29281A",
"r  c #29291A",
"t  c #2A291A",
"y  c #2B2A1A",
"u  c #2D2C1A",
"i  c #2E2D1A",
"p  c #2F2E1A",
"a  c #302F1A",
"s  c #31301A",
"d  c #32301A",
"f  c #32311A",
"g  c #33311A",
"h  c #33321A",
"j  c #34321A",
"k  c #34331A",
"l  c #353419",
"z  c #363419",
"x  c #363519",
"c  c #373519",
"v  c #373619",
"b  c #383619",
"n  c #383719",
"m  c #393719",
"M  c #3A3819",
"N  c #3A3919",
"B  c #3B3919",
"V  c #3C3A19",
"C  c #3C3B19",
"Z  c #3E3C19",
"A  c #3F3D19",
"S  c #403E19",
"D  c #413F19",
"F  c #424019",
"G  c #444219",
"H  c #454319",
"J  c #474519",
"K  c #494619",
"L  c #4B4819",
"P  c #4B4919",
"I  c #4C4919",
"U  c #4D4A19",
"Y  c #4D4B19",
"T  c #4E4B19",
"R  c #4F4C19",
"E  c #504D19",
"W  c #524F19",
"Q  c #535019",
"!  c #545119",
"~  c #555219",
"^  c #565319",
"/  c #585519",
"(  c #595619",
")  c #5B5819",
"_  c #5D5919",
"`  c #5D5A19",
"'  c #5F5C19",
"]  c #615D19",
"[  c #646019",
"{  c #646119",
"}  c #656119",
"|  c #676319",
" . c #676419",
".. c #686419",
"X. c #696519",
"o. c #6A6619",
"O. c #6B6619",
"+. c #6D6918",
"@. c #6C6819",
"#. c #706C18",
"$. c #716C18",
"%. c #716D18",
"&. c #726D18",
"*. c #726E18",
"=. c #736F18",
"-. c #777218",
";. c #787318",
":. c #787418",
">. c #797418",
",. c #7A7518",
"<. c #7B7618",
"1. c #7E7918",
"2. c #7F7A18",
"3. c #807B18",
"4. c #817C18",
"5. c #827D18",
"6. c #837D18",
"7. c #847E18",
"8. c #878218",
"9. c #888318",
"0. c #898318",
"q. c #898418",
"w. c #8D8718",
"e. c #8E8818",
"r. c #8F8918",
"t. c #938D18",
"y. c #948E18",
"u. c #958F18",
"i. c #979018",
"p. c #979118",
"a. c #989118",
"s. c #9C9518",
"d. c #9C9618",
"f. c #9D9618",
"g. c #9D9718",
"h. c #9E9718",
"j. c #9E9818",
"k. c #A49D17",
"l. c #A59E17",
"z. c #A29C18",
"x. c #A7A017",
"c. c #A9A217",
"v. c #AAA217",
"b. c #AAA317",
"n. c #ABA317",
"m. c #ACA517",
"M. c #ADA517",
"N. c #ADA617",
"B. c #AEA617",
"V. c #AEA717",
"C. c #AFA817",
"Z. c #B0A917",
"A. c #B1A917",
"S. c #B2AA17",
"D. c #B3AB17",
"F. c #B3AC17",
"G. c #B4AC17",
"H. c #B5AD17",
"J. c #B6AE17",
"K. c #B8B017",
"L. c #B9B117",
"P. c #BAB217",
"I. c #BBB317",
"U. c #BDB517",
"Y. c #BEB617",
"T. c #C0B717",
"R. c #C1B917",
"E. c #C3BA17",
"W. c #C3BB17",
"Q. c #C4BB17",
"!. c #C4BC17",
"~. c #C5BC17",
"^. c #C5BD17",
"/. c #C6BE17",
"(. c #C7BE17",
"). c #C7BF17",
"_. c #C8BF17",
"`. c #C9C017",
"'. c #C9C117",
"]. c #CBC217",
"[. c #CCC317",
"{. c #CDC417",
"}. c #CEC517",
"|. c #CFC617",
" X c #D0C717",
".X c #D1C717",
"XX c #D1C817",
"oX c #D2C917",
"OX c #D3CA17",
"+X c #D4CA17",
"@X c #D4CB17",
"#X c #D5CB17",
"$X c #D5CC17",
"%X c #DAD116",
"&X c #DBD116",
"*X c #DBD216",
"=X c #DCD216",
"-X c #DDD316",
";X c #DED416",
":X c #DFD516",
">X c #E0D616",
",X c #E1D716",
"<X c #E4DA16",
"1X c #E5DA16",
"2X c #E5DB16",
"3X c #E6DB16",
"4X c #E6DC16",
"5X c #E9DF16",
"6X c #EAE016",
"7X c #EBE016",
"8X c #EDE216",
"9X c #EEE316",
"0X c #EFE416",
"qX c #EFE516",
"wX c #F0E516",
"eX c #F0E616",
"rX c #F1E616",
"tX c #F2E816",
"yX c #F3E816",
"uX c #F4E916",
"iX c #F4EA16",
"pX c #F5EA16",
"aX c #F6EB16",
"sX c #F7EB16",
"dX c #F6EB17",
"fX c #F7EC16",
"gX c #F8EC16",
"hX c #F8ED16",
"jX c #F9ED16",
"kX c #F9EE16",
"lX c #FAEE16",
"zX c #FAEF16",
"xX c #F6EB18",
"cX c None",
/* pixels */
"cXcXcXcXcXcXcXcXcXcXcXcXcXcXcXcXcXcXcXcXcXcXcXcXcXcXxXaXxXaXaXxXaXxXaXaXxXaXcXcXcXcXcXcXcXcXcXcXcXcXcXcXcXcXcXcXcXcXcXcXcXcXcXcX",
"cXcXcXcXcXcXcXcXcXcXcXcXcXcXcXcXcXcXcXcXcXcXaXxXaXaXaXaXaXaXaXaXaXaXaXaXaXaXaXaXaXxXcXcXcXcXcXcXcXcXcXcXcXcXcXcXcXcXcXcXcXcXcXcX",
"cXcXcXcXcXcXcXcXcXcXcXcXcXcXcXcXcXcXcXcXaXaXaXaXaXaXaXaXaXaXaXaXaXaXaXaXaXaXaXaXaXaXaXaXcXcXcXcXcXcXcXcXcXcXcXcXcXcXcXcXcXcXcXcX",
"cXcXcXcXcXcXcXcXcXcXcXcXcXcXcXcXcXxXaXaXaXaXaXaXaXaXaXaXaXaXaXaXaXaXaXaXaXaXaXaXaXaXaXaXaXaXxXcXcXcXcXcXcXcXcXcXcXcXcXcXcXcXcXcX",
"cXcXcXcXcXcXcXcXcXcXcXcXcXcXcXcXaXaXaXaXaXaXaXaXaXaXaXaXaXaXaXaXaXaXaXaXaXaXaXaXaXaXaXaXaXaXaXaXcXcXcXcXcXcXcXcXcXcXcXcXcXcXcXcX",
"cXcXcXcXcXcXcXcXcXcXcXcXcXcXaXaXaXaXaXaXaXaXaXaXaXaXaXaXaXaXaXaXaXaXaXaXaXaXaXaXaXaXaXaXaXaXaXaXaXaXcXcXcXcXcXcXcXcXcXcXcXcXcXcX",
"cXcXcXcXcXcXcXcXcXcXcXcXcXaXaXaXaXaXaXaXaXaXaXaXaXaXaXaXaXaXaXaXaXaXaXaXaXaXaXaXaXaXaXaXaXaXaXaXaXaXaXcXcXcXcXcXcXcXcXcXcXcXcXcX",
"cXcXcXcXcXcXcXcXcXcXcXxXaXaXaXaXaXaXaXaXaXaXaXaXaXaXaXaXaXaXaXaXaXaXaXaXaXaXaXaXaXaXaXaXaXaXaXaXaXaXaXaXxXcXcXcXcXcXcXcXcXcXcXcX",
"cXcXcXcXcXcXcXcXcXcXaXaXaXaXaXaXaXaXaXaXaXaXaXaXaXaXaXaXaXaXaXaXaXaXaXaXaXaXaXaXaXaXaXaXaXaXaXaXaXaXaXaXaXaXcXcXcXcXcXcXcXcXcXcX",
"cXcXcXcXcXcXcXcXcXaXaXaXaXaXaXaXaXaXaXaXaXaXaXaXaXaXaXaXaXaXaXaXaXaXaXaXaXaXaXaXaXaXaXaXaXaXaXaXaXaXaXaXaXaXxXcXcXcXcXcXcXcXcXcX",
"cXcXcXcXcXcXcXcXxXaXaXaXaXaXaXaXaXaXaXaXaXaXaXaXaXaXaXaXaXaXaXaXaXaXaXaXaXaXaXaXaXaXaXaXaXaXaXaXaXaXaXaXaXaXaXaXcXcXcXcXcXcXcXcX",
"cXcXcXcXcXcXcXaXaXaXaXaXaXaXaXaXaXaXaXfXaXaXaXaXaXaXaXaXaXaXaXaXaXaXaXaXaXaXaXaXaXaXaXaXaXaXaXaXaXaXaXaXaXaXaXaXaXcXcXcXcXcXcXcX",
"cXcXcXcXcXcXcXaXaXaXaXaXaXaXaXaXaXaXaXkXzXzXzXkXkXkXkXzXkXzXzXkXkXzXkXkXkXaXaXaXaXaXaXaXaXaXaXaXkXfXaXaXaXaXaXaXaXcXcXcXcXcXcXcX",
"cXcXcXcXcXcXaXaXaXaXaXaXaXaXaXaXaXaX8XJ.n.n.n.n.m.n.n.m.n.n.m.n.m.m.L.`.=XwXkXkXaXaXaXaXaXaXkXwX+XyXfXaXaXaXaXaXaXaXcXcXcXcXcXcX",
"cXcXcXcXcXxXaXaXaXaXaXaXaXaXaXaXaXfX=Xz % = = = = = = = % ; ; % = = > 7 z ^ 9.!.wXkXaXaXaXaX}.@.h d.aXaXaXaXaXaXaXaXxXcXcXcXcXcX",
"cXcXcXcXcXaXaXaXaXaXaXaXaXaXaXaXaXkX=Xg # % % % % % % % % % % % % % % % # + + 7 ( J.aXkX,X9.h + + 7 d.aXfXaXaXaXaXaXaXcXcXcXcXcX",
"cXcXcXcXaXaXaXaXaXaXaXaXaXaXaXaXaXkX&Xh + % % % % % % % % % % % % % % % % % + + e w.4Xk.H + + % % + 7 g.aXfXaXaXaXaXaXaXcXcXcXcX",
"cXcXcXxXaXaXaXaXaXaXaXaXaXaXaXaXaXfX&Xh + % % % % % % % % % % % % % % % % + 1 | !.Y.) ; + % % % % % @ 7 d.aXfXaXaXaXaXaXxXcXcXcX",
"cXcXcXaXaXaXaXaXaXaXaXaXaXaXaXaXaXfX&Xh + % % % % % % % % % % % % % % + % U A.{.,.7 + @ % % % % % % % @ 6 d.yXfXaXaXaXaXaXcXcXcX",
"cXcXcXaXaXaXaXaXaXaXaXaXaXaXaXaXaXkX&Xh + % % % % % % % % + % + # # + N a.XXt.b % % % % % % % % % % % @ + N }.fXaXaXaXaXaXcXcXcX",
"cXcXaXaXaXaXaXaXaXaXaXaXaXaXaXaXaXfX&Xh + % % % % % % % ; 7 7 7 5 i ,.`.m.J = # % % % % % % % % % % + 1 | Q.yXaXaXaXaXaXaXaXcXcX",
"cXcXaXaXaXaXaXaXaXaXaXaXaXaXaXaXaXkX&Xh + % % % % % % + ^ !.`._._.XXaXW.N + % % % % % % % % % % @ % U m.0XkXaXaXaXaXaXaXaXaXcXcX",
"cXxXaXaXaXaXaXaXaXaXaXaXaXaXaXaXaXkX&Xh + % % % % % @ + o.fXkXkXkXfXaXaX}.U + % % % % % % % # # b t.<XkXfXaXaXaXaXaXaXaXaXaXxXcX",
"cXaXaXaXaXaXaXaXaXaXaXaXaXaXaXaXaXfX&Xh + % % % % % @   #.fXaXaXaXaXaXaXkX`.h + % % % % % + q ,.$XkXaXaXaXaXaXaXaXaXaXaXaXaXaXcX",
"cXaXaXaXaXaXaXaXaXaXaXaXaXaXaXaXaXfX&Xh + % % % % + 7 =.+XfXaXaXaXaXaXaXaXaX1.+ % % % + ; ] Y..X0XaXaXaXaXaXaXaXaXaXaXaXaXaXaXcX",
"cXaXaXaXaXaXaXaXaXaXaXaXaXaXaXaXaXkX&Xh + @ % + ; ( L.W.m.yXaXaXaXaXaXaXaXkXL.; # + % J n.}.1.S XXkXaXaXaXaXaXaXaXaXaXaXaXaXaXcX",
"xXaXaXaXaXaXaXaXaXaXaXaXaXaXaXaXaXfX&Xh + + @ F k.XX9.y | aXaXaXaXaXaXaXaXkXXXe + h e.XXd.V + 5 `.kXaXaXaXaXaXaXaXaXaXaXaXaXaXxX",
"aXaXaXaXaXaXaXaXaXaXaXaXaXaXaXaXaXkX&Xh   h 9.XXz.S + + o.aXaXaXaXaXaXaXaXkX+XV =.`.J.W % # # 5 !.kXaXaXaXaXaXaXaXaXaXaXaXaXaXaX",
"xXaXaXaXaXaXaXaXaXaXaXaXaXaXaXaXaXkX&XZ o.!.L./ ; + % + | aXaXaXaXaXaXaXaXfX<X!.!.+.5 + % % % e }.kXaXaXaXaXaXaXaXaXaXaXaXaXaXxX",
"aXaXaXaXaXaXaXaXaXaXaXaXaXaXaXaXaXaX7X!.`.-.6 + % % + + o.yXaXaXaXaXaXaXaXaX:X8.i + % % % % + g &XkXaXaXaXaXaXaXaXaXaXaXaXaXaXaX",
"xXaXaXaXaXaXaXaXaXaXaXaXaXaXaXaXfXkX,Xe.h + + % % % %   o.aXaXaXaXaXfXaXkX:XQ + @ % % % % % + U 8XaXaXaXaXaXaXaXaXaXaXaXaXaXaXxX",
"aXaXaXaXaXaXaXaXaXaXaXaXaXaXaXkX8Xx.H % + % % % % % % + o.fXkXaXaXkXkXaX+X] % % % % % % % % + 6.kXaXaXaXaXaXaXaXaXaXaXaXaXaXaXaX",
"xXaXaXaXaXaXaXaXaXaXaXaXaXkXaXT._ ; @ % % % % % % % % + L n.C.:XfXXXd.=.g % % % % % % % % + q _.kXaXaXaXaXaXaXaXaXaXaXaXaXaXaXaX",
"aXaXaXaXaXaXaXaXaXaXaXfXkXXX-.q + % % % % % % % % % % @ + Z g.XXw.h + + + % % % % % % % % + =.wXaXaXaXaXaXaXaXaXaXaXaXaXaXaXaXxX",
"xXaXaXaXaXaXaXaXaXfXkX<Xt.z + % % % % % % % % % % % + e 1..Xn.J % + % % % % % % % % % % + Z $XkXaXaXaXaXaXaXaXaXaXaXaXaXaXaXaXaX",
"aXaXaXaXaXaXaXaXkX8Xm.U % @ % % % % % % % % % % + ; | Q.Y.' ; + % % % % % % % % % % % + a L.kXaXaXaXaXaXaXaXaXaXaXaXaXaXaXaXaXaX",
"xXaXaXaXaXaXaXaXkX.Xb + % % % % % % % % % % + % L C.}.,.e + + % % % % % % % % % % + + N L.aXaXaXaXaXaXaXaXaXaXaXaXaXaXaXaXaXaXxX",
"aXaXaXaXaXaXaXaXaXaXF.i + % % % % % % % @ + z t.XXa.N @ % % % % % % % % % % % + + 1 | |.kXaXaXaXaXaXaXaXaXaXaXaXaXaXaXaXaXaXaXaX",
"cXaXaXaXaXaXaXaXaXaXkXG.i + % % % % % + e :.}.C.U % + % % % % % # # % % + + % e _ A.8XfXaXaXaXaXaXaXaXaXaXaXaXaXaXaXaXaXaXaXaXcX",
"cXaXaXaXaXaXaXaXaXaXaXkXJ.i + % % @ ; _ Y.W.| 1 + % % % ; 1 7 7 7 7 y g J o.a.`.wXkXkXaXaXaXaXaXaXaXaXaXaXaXaXaXaXaXaXaXaXaXaXcX",
"cXxXaXaXaXaXaXaXaXaXaXaXfXJ.i + % H k.XX6.i + + % % % + W W.!.!.(.'.XX=X7XaXkXkXaXaXaXaXaXaXaXaXaXaXaXaXaXaXaXaXaXaXaXaXaXaXxXcX",
"cXaXaXaXaXaXaXaXaXaXaXaXaXfXJ.J 9.,X<XU + @ % % % % % + o.fXkXkXkXkXkXkXaXaXaXaXaXaXaXaXaXaXaXaXaXaXaXaXaXaXaXaXaXaXaXaXaXaXaXcX",
"cXcXaXaXaXaXaXaXaXaXaXaXaXaXaX<XaXkX&Xh + % % % % % + + o.yXaXaXaXaXaXaXaXaXaXaXaXaXaXaXaXaXaXaXaXaXaXaXaXaXaXaXaXaXaXaXaXaXcXcX",
"cXcXxXaXaXaXaXaXaXaXaXaXaXaXaXaXaXkX&Xh + % % % % % %   o.aXaXaXaXaXaXaXaXaXaXaXaXaXaXaXaXaXaXaXaXaXaXaXaXaXaXaXaXaXaXaXaXxXcXcX",
"cXcXcXaXaXaXaXaXaXaXaXaXaXaXaXaXaXkX&Xh + % % % % % %    .aXaXaXaXaXaXaXaXaXaXaXaXaXaXaXaXaXaXaXaXaXaXaXaXaXaXaXaXaXaXaXaXcXcXcX",
"cXcXcXaXaXaXaXaXaXaXaXaXaXaXaXaXaXfX&Xh + % % % % % % + o.aXaXaXaXaXaXaXaXaXaXaXaXaXaXaXaXaXaXaXaXaXaXaXaXaXaXaXaXaXaXaXaXcXcXcX",
"cXcXcXaXaXaXaXaXaXaXaXaXaXaXaXaXaXfX&Xh + % % % % % % + | aXaXaXaXaXaXaXaXaXaXaXaXaXaXaXaXaXaXaXaXaXaXaXaXaXaXaXaXaXaXaXaXcXcXcX",
"cXcXcXcXaXaXaXaXaXaXaXaXaXaXaXaXaXkX&Xh + % % % % % + % 3.aXaXaXaXaXaXaXaXaXaXaXaXaXaXaXaXaXaXaXaXaXaXaXaXaXaXaXaXaXaXaXcXcXcXcX",
"cXcXcXcXcXaXaXaXaXaXaXaXaXaXaXaXaXfX&Xh + % % % @ @ Z g.5XfXaXaXaXaXaXaXaXaXaXaXaXaXaXaXaXaXaXaXaXaXaXaXaXaXaXaXaXaXaXcXcXcXcXcX",
"cXcXcXcXcXaXaXaXaXaXaXaXaXaXaXaXaXkX&Xh + % @ + i 6.=XkXfXaXaXaXaXaXaXaXaXaXaXaXaXaXaXaXaXaXaXaXaXaXaXaXaXaXaXaXaXaXaXcXcXcXcXcX",
"cXcXcXcXcXcXaXaXaXaXaXaXaXaXaXaXaXfX&Xh + + 1 o.`.aXkXfXaXaXaXaXaXaXaXaXaXaXaXaXaXaXaXaXaXaXaXaXaXaXaXaXaXaXaXaXaXaXcXcXcXcXcXcX",
"cXcXcXcXcXcXcXaXaXaXaXaXaXaXaXaXaXkX&Xa % R A.wXkXaXaXaXaXaXaXaXaXaXaXaXaXaXaXaXaXaXaXaXaXaXaXaXaXaXaXaXaXaXaXaXaXcXcXcXcXcXcXcX",
"cXcXcXcXcXcXcXxXaXaXaXaXaXaXaXaXaXkX&X^ t.4XkXfXaXaXaXaXaXaXaXaXaXaXaXaXaXaXaXaXaXaXaXaXaXaXaXaXaXaXaXaXaXaXaXaXxXcXcXcXcXcXcXcX",
"cXcXcXcXcXcXcXcXaXaXaXaXaXaXaXaXaXaX0X:XkXfXaXaXaXaXaXaXaXaXaXaXaXaXaXaXaXaXaXaXaXaXaXaXaXaXaXaXaXaXaXaXaXaXaXxXcXcXcXcXcXcXcXcX",
"cXcXcXcXcXcXcXcXcXxXaXaXaXaXaXaXaXaXaXfXfXaXaXaXaXaXaXaXaXaXaXaXaXaXaXaXaXaXaXaXaXaXaXaXaXaXaXaXaXaXaXaXaXaXaXcXcXcXcXcXcXcXcXcX",
"cXcXcXcXcXcXcXcXcXcXxXaXaXaXaXaXaXaXaXaXaXaXaXaXaXaXaXaXaXaXaXaXaXaXaXaXaXaXaXaXaXaXaXaXaXaXaXaXaXaXaXaXaXxXcXcXcXcXcXcXcXcXcXcX",
"cXcXcXcXcXcXcXcXcXcXcXaXaXaXaXaXaXaXaXaXaXaXaXaXaXaXaXaXaXaXaXaXaXaXaXaXaXaXaXaXaXaXaXaXaXaXaXaXaXaXaXaXaXcXcXcXcXcXcXcXcXcXcXcX",
"cXcXcXcXcXcXcXcXcXcXcXcXcXaXaXaXaXaXaXaXaXaXaXaXaXaXaXaXaXaXaXaXaXaXaXaXaXaXaXaXaXaXaXaXaXaXaXaXaXaXaXcXcXcXcXcXcXcXcXcXcXcXcXcX",
"cXcXcXcXcXcXcXcXcXcXcXcXcXcXxXaXaXaXaXaXaXaXaXaXaXaXaXaXaXaXaXaXaXaXaXaXaXaXaXaXaXaXaXaXaXaXaXaXaXxXcXcXcXcXcXcXcXcXcXcXcXcXcXcX",
"cXcXcXcXcXcXcXcXcXcXcXcXcXcXcXcXaXaXaXaXaXaXaXaXaXaXaXaXaXaXaXaXaXaXaXaXaXaXaXaXaXaXaXaXaXaXaXaXcXcXcXcXcXcXcXcXcXcXcXcXcXcXcXcX",
"cXcXcXcXcXcXcXcXcXcXcXcXcXcXcXcXcXaXaXaXaXaXaXaXaXaXaXaXaXaXaXaXaXaXaXaXaXaXaXaXaXaXaXaXaXaXaXcXcXcXcXcXcXcXcXcXcXcXcXcXcXcXcXcX",
"cXcXcXcXcXcXcXcXcXcXcXcXcXcXcXcXcXcXcXcXxXaXaXaXaXaXaXaXaXaXaXaXaXaXaXaXaXaXaXaXaXaXaXxXcXcXcXcXcXcXcXcXcXcXcXcXcXcXcXcXcXcXcXcX",
"cXcXcXcXcXcXcXcXcXcXcXcXcXcXcXcXcXcXcXcXcXcXxXaXaXaXaXaXaXaXaXaXaXaXaXaXaXaXaXaXxXaXcXcXcXcXcXcXcXcXcXcXcXcXcXcXcXcXcXcXcXcXcXcX",
"cXcXcXcXcXcXcXcXcXcXcXcXcXcXcXcXcXcXcXcXcXcXcXcXcXcXaXxXaXxXaXxXxXaXxXaXxXaXcXcXcXcXcXcXcXcXcXcXcXcXcXcXcXcXcXcXcXcXcXcXcXcXcXcX"
};
