/* XPM */
static char *_9148988b0b64da394b12afea02246ff[] = {
/* columns rows colors chars-per-pixel */
"128 128 60 1 ",
"  c #16161A",
". c #17181A",
"X c #19191A",
"o c #201F1A",
"O c #23231A",
"+ c #28271A",
"@ c #2D2C1A",
"# c #302F1A",
"$ c #33321A",
"% c #393719",
"& c #3D3B19",
"* c #413F19",
"= c #454319",
"- c #494619",
"; c #4C4A19",
": c #514E19",
"> c #555219",
", c #595619",
"< c #5D5A19",
"1 c #625E19",
"2 c #666219",
"3 c #6A6619",
"4 c #6D6918",
"5 c #716D18",
"6 c #767218",
"7 c #797418",
"8 c #7E7918",
"9 c #827C18",
"0 c #868118",
"q c #8B8518",
"w c #8E8818",
"e c #938D18",
"r c #979018",
"t c #9B9518",
"y c #9F9918",
"u c #A59E17",
"i c #A19B18",
"p c #A7A017",
"a c #ABA417",
"s c #AFA817",
"d c #B2AB17",
"f c #BCB417",
"g c #C0B717",
"h c #C4BB17",
"j c #C8BF17",
"k c #CBC317",
"l c #D0C717",
"z c #D5CC17",
"x c #D8CF17",
"c c #DBD116",
"v c #E1D716",
"b c #E4DA16",
"n c #E9DE16",
"m c #EDE216",
"M c #F1E616",
"N c #F6EB16",
"B c #F9EE16",
"V c #F6EB18",
"C c #FCF116",
"Z c None",
/* pixels */
"ZZZZZZZZZZZZZZZZZZZZZZZZZZZZZZZZZZZZZZZZZZZZZZZZZZZZZZZZNNNVNVVVVVVNNVVVZZZZZZZZZZZZZZZZZZZZZZZZZZZZZZZZZZZZZZZZZZZZZZZZZZZZZZZZ",
"ZZZZZZZZZZZZZZZZZZZZZZZZZZZZZZZZZZZZZZZZZZZZZZZZZZVNVNNNNNNNNNNNNNNNNNNNNNNNVVZZZZZZZZZZZZZZZZZZZZZZZZZZZZZZZZZZZZZZZZZZZZZZZZZZ",
"ZZZZZZZZZZZZZZZZZZZZZZZZZZZZZZZZZZZZZZZZZZZZZZVNVNNNNNNNNNNNNNNNNNNNNNNNNNNNNNNNNVZZZZZZZZZZZZZZZZZZZZZZZZZZZZZZZZZZZZZZZZZZZZZZ",
"ZZZZZZZZZZZZZZZZZZZZZZZZZZZZZZZZZZZZZZZZZZZVNNNNNNNNNNNNNNNNNNNNNNNNNNNNNNNNNNNNNNNNVZZZZZZZZZZZZZZZZZZZZZZZZZZZZZZZZZZZZZZZZZZZ",
"ZZZZZZZZZZZZZZZZZZZZZZZZZZZZZZZZZZZZZZZZVVNNNNNNNNNNNNNNNNNNNNNNNNNNNNNNNNNNNNNNNNNNNNNNZZZZZZZZZZZZZZZZZZZZZZZZZZZZZZZZZZZZZZZZ",
"ZZZZZZZZZZZZZZZZZZZZZZZZZZZZZZZZZZZZZZNNNNNNNNNNNNNNNNNNNNNNNNNNNNNNNNNNNNNNNNNNNNNNNNNNNVZZZZZZZZZZZZZZZZZZZZZZZZZZZZZZZZZZZZZZ",
"ZZZZZZZZZZZZZZZZZZZZZZZZZZZZZZZZZZZZNNNNNNNNNNNNNNNNNNNNNNNNNNNNNNNNNNNNNNNNNNNNNNNNNNNNNNNNZZZZZZZZZZZZZZZZZZZZZZZZZZZZZZZZZZZZ",
"ZZZZZZZZZZZZZZZZZZZZZZZZZZZZZZZZZZNNNNNNNNNNNNNNNNNNNNNNNNNNNNNNNNNNNNNNNNNNNNNNNNNNNNNNNNNNNVZZZZZZZZZZZZZZZZZZZZZZZZZZZZZZZZZZ",
"ZZZZZZZZZZZZZZZZZZZZZZZZZZZZZZZZNNNNNNNNNNNNNNNNNNNNNNNNNNNNNNNNNNNNNNNNNNNNNNNNNNNNNNNNNNNNNNNNZZZZZZZZZZZZZZZZZZZZZZZZZZZZZZZZ",
"ZZZZZZZZZZZZZZZZZZZZZZZZZZZZZZZNNNNNNNNNNNNNNNNNNNNNNNNNNNNNNNNNNNNNNNNNNNNNNNNNNNNNNNNNNNNNNNNNNZZZZZZZZZZZZZZZZZZZZZZZZZZZZZZZ",
"ZZZZZZZZZZZZZZZZZZZZZZZZZZZZZNNNNNNNNNNNNNNNNNNNNNNNNNNNNNNNNNNNNNNNNNNNNNNNNNNNNNNNNNNNNNNNNNNNNNVZZZZZZZZZZZZZZZZZZZZZZZZZZZZZ",
"ZZZZZZZZZZZZZZZZZZZZZZZZZZZVVNNNNNNNNNNNNNNNNNNNNNNNNNNNNNNNNNNNNNNNNNNNNNNNNNNNNNNNNNNNNNNNNNNNNNNNVZZZZZZZZZZZZZZZZZZZZZZZZZZZ",
"ZZZZZZZZZZZZZZZZZZZZZZZZZZNNNNNNNNNNNNNNNNNNNNNNNNNNNNNNNNNNNNNNNNNNNNNNNNNNNNNNNNNNNNNNNNNNNNNNNNNNNNZZZZZZZZZZZZZZZZZZZZZZZZZZ",
"ZZZZZZZZZZZZZZZZZZZZZZZZZVNNNNNNNNNNNNNNNNNNNNNNNNNNNNNNNNNNNNNNNNNNNNNNNNNNNNNNNNNNNNNNNNNNNNNNNNNNNNVZZZZZZZZZZZZZZZZZZZZZZZZZ",
"ZZZZZZZZZZZZZZZZZZZZZZZZNNNNNNNNNNNNNNNNNNNNNNNNNNNNNNNNNNNNNNNNNNNNNNNNNNNNNNNNNNNNNNNNNNNNNNNNNNNNNNNNZZZZZZZZZZZZZZZZZZZZZZZZ",
"ZZZZZZZZZZZZZZZZZZZZZZVNNNNNNNNNNNNNNNNNNNNNNNNNNNNNNNNNNNNNNNNNNNNNNNNNNNNNNNNNNNNNNNNNNNNNNNNNNNNNNNNNNVZZZZZZZZZZZZZZZZZZZZZZ",
"ZZZZZZZZZZZZZZZZZZZZZNNNNNNNNNNNNNNNNNNNNNNNNNNNNNNNNNNNNNNNNNNNNNNNNNNNNNNNNNNNNNNNNNNNNNNNNNNNNNNNNNNNNNVZZZZZZZZZZZZZZZZZZZZZ",
"ZZZZZZZZZZZZZZZZZZZZVNNNNNNNNNNNNNNNNNNNNNNNNNNNNNNNNNNNNNNNNNNNNNNNNNNNNNNNNNNNNNNNNNNNNNNNNNNNNNNNNNNNNNNNZZZZZZZZZZZZZZZZZZZZ",
"ZZZZZZZZZZZZZZZZZZZNNNNNNNNNNNNNNNNNNNNNNNNNNNNNNNNNNNNNNNNNNNNNNNNNNNNNNNNNNNNNNNNNNNNNNNNNNNNNNNNNNNNNNNNNNZZZZZZZZZZZZZZZZZZZ",
"ZZZZZZZZZZZZZZZZZZVNNNNNNNNNNNNNNNNNNNNNNNNNNNNNNNNNNNNNNNNNNNNNNNNNNNNNNNNNNNNNNNNNNNNNNNNNNNNNNNNNNNNNNNNNNVZZZZZZZZZZZZZZZZZZ",
"ZZZZZZZZZZZZZZZZZNNNNNNNNNNNNNNNNNNNNNNNNNNNNNNNNNNNNNNNNNNNNNNNNNNNNNNNNNNNNNNNNNNNNNNNNNNNNNNNNNNNNNNNNNNNNNNZZZZZZZZZZZZZZZZZ",
"ZZZZZZZZZZZZZZZZNNNNNNNNNNNNNNNNNNNNNNNNNNNNNNNNNNNNNNNNNNNNNNNNNNNNNNNNNNNNNNNNNNNNNNNNNNNNNNNNNNNNNNNNNNNNNNNNZZZZZZZZZZZZZZZZ",
"ZZZZZZZZZZZZZZZVNNNNNNNNNNNNNNNNNNNNNNNNNNNNNNNNNNNNNNNNNNNNNNNNNNNNNNNNNNNNNNNNNNNNNNNNNNNNNNNNNNNNNNNNNNNNNNNNVZZZZZZZZZZZZZZZ",
"ZZZZZZZZZZZZZZZNNNNNNNNNNNNNNNNNNNNNNNNNNNNNNNNNNNNNNNNNNNNNNNNNNNNNNNNNNNNNNNNNNNNNNNNNNNNNNNNNNNNNNNNNNNNNNNNNNZZZZZZZZZZZZZZZ",
"ZZZZZZZZZZZZZZNNNNNNNNNNNNNNNNNNNNNNNNNNNNNNNNNNNNNNNNNNNNNNNNNNNNNNNNNNNNNNNNNNNNNNNNNNNNNNNNNNNNNNNNNNNNNNNNNNNNZZZZZZZZZZZZZZ",
"ZZZZZZZZZZZZZVNNNNNNNNNNNNNNNNNNNNNNNNNNNNNNNNNNNNNNNNNNNNNNNNNNNNNNNNNNNNNNNNNNNNNNNNNNNNNNNNNNNNNNNNNNNNNNNNNNNNVZZZZZZZZZZZZZ",
"ZZZZZZZZZZZZNNNNNNNNNNNNNNNNNNNNNNNNNNBNNNNNNNNNNNNNNNNNNNNNNNNNNNNBBBCBBBNNNNNNNNNNNNNNNNNNNNNNBBNNNNNNNNNNNNNNNNNNZZZZZZZZZZZZ",
"ZZZZZZZZZZZVNNNNNNNNNNNNNNNNNNNNNNNNNmq444444444444444444444444444569epfznNBBNNNNNNNNNNNNNNNNNBMggBNNNNNNNNNNNNNNNNNVZZZZZZZZZZZ",
"ZZZZZZZZZZZNNNNNNNNNNNNNNNNNNNNNNNNNBc#                               Xo@=3rhnNCNNNNNNNNNNNNNBz7+#dNNNNNNNNNNNNNNNNNNZZZZZZZZZZZ",
"ZZZZZZZZZZNNNNNNNNNNNNNNNNNNNNNNNNNNNc$  X   X X X X X  XX   X XX.XXX XX.  .+;qjMNNNNNNNNNNBbr%XX #dBNNNNNNNNNNNNNNNNVZZZZZZZZZZ",
"ZZZZZZZZZZNNNNNNNNNNNNNNNNNNNNNNNNNNBc$ XXXXXXXXXXXXXXXXXXXX XXXXXXXXXXXXX.X...+1dMNNNNNNNMs;XXXXX #dBNNNNNNNNNNNNNNNNZZZZZZZZZZ",
"ZZZZZZZZZNNNNNNNNNNNNNNNNNNNNNNNNNNNNc$ XXXXXXXXXXXXXXXXXXXXXXXXXXXXX.XXXXXX.X..Xo,fMNNCNj3oXXXXXXX #dNNNNNNNNNNNNNNNNNZZZZZZZZZ",
"ZZZZZZZZVNNNNNNNNNNNNNNNNNNNNNNNNNNNBc$ ..XXXXXXXXXXXXXXXXXXXXXXXXXXX XXXXXXXXXXX X2bNNc9@ .XXXXXXXX #dNNNNNNNNNNNNNNNNNZZZZZZZZ",
"ZZZZZZZZNNNNNNNNNNNNNNNNNNNNNNNNNNNNNc$ X.XXXXXXXXXXXX XXXXXXXXXXXXXXXXXXXXXXXX..*tnCny*..XXXXXXXXXXX #dBNNNNNNNNNNNNNNNZZZZZZZZ",
"ZZZZZZZNNNNNNNNNNNNNNNNNNNNNNNNNNNNNBc$.XXXXXXXXXXXXXXXXXXXXXXXXXXXXXXXXXXXXX. @9cCMd>X.XXXXXXXXXXXXXX #dNNNNNNNNNNNNNNNNZZZZZZZ",
"ZZZZZZZNNNNNNNNNNNNNNNNNNNNNNNNNNNNNBc$ XXXXXX.XXXXXXXXXXXXXXXXXXXXXXXXXXXXX o3jBBl4O.XXX.X.XXX.XXXXXXX #dBNNNNNNNNNNNNNNZZZZZZZ",
"ZZZZZZNNNNNNNNNNNNNNNNNNNNNNNNNNNNNNNc$ XXXXXXXXXXXXXXXXXXXXXXXXXXXXXXXXXX X;dMCv9$X.XXXXXXXXXXXX.XXXXXX #dNNNNNNNNNNNNNNVZZZZZZ",
"ZZZZZZNNNNNNNNNNNNNNNNNNNNNNNNNNNNNNNc$ XX.XXXXXXXXXXXXXXXXX XXXXXXXXXXXX &rbBmu*XXXXXXXXXXXXXXXXXXXXXXXX #dBNNNNNNNNNNNNNZZZZZZ",
"ZZZZZVNNNNNNNNNNNNNNNNNNNNNNNNNNNNNNBc$ XXXXXXXXX XXXXXXXXXXXXXXXXXXXXX +7xBNg,o XXXXXXXX.XXXXXXXXXXXXXXXX #dNNNNNNNNNNNNNVZZZZZ",
"ZZZZZVNNNNNNNNNNNNNNNNNNNNNNNNNNNNNNBc$ XXXXXXXXXXXXXXXXXXXXXXXX XXXX o1hBBl6O XXXXXXXXXXXXXXXXXXXXXXXXXX.X&pNNNNNNNNNNNNNNZZZZZ",
"ZZZZNNNNNNNNNNNNNNNNNNNNNNNNNNNNNNNNNc# XXXXX.XXXXXXXXXXXXXXXXXXXXX X-pMCbw%  XXXX.XXXXXXXXXXXXXXXXXXXX  #9cNNNNNNNNNNNNNNNVZZZZ",
"ZZZZNNNNNNNNNNNNNNNNNNNNNNNNNNNNNNNNBc$ XXXXXXXXXXXXX XXXXXooXoXXoX%wbBma-X.XXXXXXXXXXXXXXXXXXX.XXXXXX O2hNBNNNNNNNNNNNNNNNNZZZZ",
"ZZZZNNNNNNNNNNNNNNNNNNNNNNNNNNNNNNNNNc$XXXXXXXXXXXXXXXXXX4ddadddsddzNBv3X XXXXXXXXXXXXXXXXXXXXXXXXXXXX;dMBNNNNNNNNNNNNNNNNNNZZZZ",
"ZZZVNNNNNNNNNNNNNNNNNNNNNNNNNNNNNNNNBc$ XXXXXXXXXXXXXXXXXaCBBBBBBBBNNNnd,oXXXXXXXXXXXXXXXXX.XXXXXX  %ebBNNNNNNNNNNNNNNNNNNNNVZZZ",
"ZZZVNNNNNNNNNNNNNNNNNNNNNNNNNNNNNNNNBc$XXXXXXXXXXXXXXXXXXaCNNNNNNNNNNNBBme+ XX.XXXXXXXXXXXXXXXXXX +7xNNNNNNNNNNNNNNNNNNNNNNNNZZZ",
"ZZZNNNNNNNNNNNNNNNNNNNNNNNNNNNNNNNNNNc$XXXXXXXXXXXXXXXXXopBNNNNNNNNNNNNNNBuO XXXXXXXXXXXXXXXXXX X<gNBNNNNNNNNNNNNNNNNNNNNNNNNZZZ",
"ZZVNNNNNNNNNNNNNNNNNNNNNNNNNNNNNNNNNNc$XXXXXXXXXXXXXXXXXXpCNNNNNNNNNNNNNNNNwXXXXXXXXXXXXXXXXX X-amBNNNNNNNNNNNNNNNNNNNNNNNNNNVZZ",
"ZZNNNNNNNNNNNNNNNNNNNNNNNNNNNNNNNNNNNc$XXXXX.XXXXXXXXXXXodBNNNNNNNNNNNNNNNNn> XXXXXXXXX.XXXX $wbCBNNNNNNNNNNNNNNNNNNNNNNNNNNNVZZ",
"ZZNNNNNNNNNNNNNNNNNNNNNNNNNNNNNNNNNNBc$ XXXXXXXXXXXXXX &tmNNNNNNNNNNNNNNNNNBsoXXXXXXXXXXXX.+5lBBNNNNNNNNNNNNNNNNNNNNNNNNNNNNNNZZ",
"ZZNNNNNNNNNNNNNNNNNNNNNNNNNNNNNNNNNNNc$ XXXXXXXXXXXX @8cBNNNNNNNNNNNNNNNNNNNb*XXXXXXXXXX X,fNBxrnNNNNNNNNNNNNNNNNNNNNNNNNNNNNNZZ",
"ZVNNNNNNNNNNNNNNNNNNNNNNNNNNNNNNNNNNBc$ XXXXXXXXXX O2jNBlcNNNNNNNNNNNNNNNNNNN7 XXXXXXX .=imBnr&@lBNNNNNNNNNNNNNNNNNNNNNNNNNNNNVZ",
"ZVNNNNNNNNNNNNNNNNNNNNNNNNNNNNNNNNNNBc$ XXXXXXXX X-sMCvq$aBNNNNNNNNNNNNNNNNNBiXXXXXXX #0cCMd:X +gBNNNNNNNNNNNNNNNNNNNNNNNNNNNNNZ",
"ZNNNNNNNNNNNNNNNNNNNNNNNNNNNNNNNNNNNBc$ XXXXXXXX%ebCmu= XaBNNNNNNNNNNNNNNNNNBgoXXXX O3kBBk3O  XXdBBNNNNNNNNNNNNNNNNNNNNNNNNNNNNZ",
"ZNNNNNNNNNNNNNNNNNNNNNNNNNNNNNNNNNNNBc$ XXXXX +7zCNg<o .oaBBNNNNNNNNNNNNNNNNBk+X. X:dMCc9# XXXXXaCNNNNNNNNNNNNNNNNNNNNNNNNNNNNVZ",
"ZNNNNNNNNNNNNNNNNNNNNNNNNNNNNNNNNNNNBc$ XXX o<gNCz6+X...XaBNNNNNNNNNNNNNNNNNNl+X &tnCmi=X.XXXXXXpCNNNNNNNNNNNNNNNNNNNNNNNNNNNNNZ",
"ZNNNNNNNNNNNNNNNNNNNNNNNNNNNNNNNNNNNNc$ X X-pmCbe$X..XXXXaBNNNNNNNNNNNNNNNNNBk++8cCMf,X XXXXXXXXpBNNNNNNNNNNNNNNNNNNNNNNNNNNNNNZ",
"VNNNNNNNNNNNNNNNNNNNNNNNNNNNNNNNNNNNBc$  $wbCMa-XX.XXXXXXaCNNNNNNNNNNNNNNNNNBj3jNBl5+ XXXXXXXXXXdCNNNNNNNNNNNNNNNNNNNNNNNNNNNNNV",
"VNNNNNNNNNNNNNNNNNNNNNNNNNNNNNNNNNNNBc#O5lBNh1oX.XXXXXXXXsCNNNNNNNNNNNNNNNNNNMMCvq$. XXXXXXXXXXOgBNNNNNNNNNNNNNNNNNNNNNNNNNNNNNV",
"VNNNNNNNNNNNNNNNNNNNNNNNNNNNNNNNNNNNNc5fMCc8+XXXXXXXXX.XXaBNNNNNNNNNNNNNNNNNNBnp=X XXXXXXXXXXXX+lBNNNNNNNNNNNNNNNNNNNNNNNNNNNNNN",
"NNNNNNNNNNNNNNNNNNNNNNNNNNNNNNNNNNNNNMMCnr&  XXXXXXXXXXXXaCNNNNNNNNNNNNNNNNNNg<o XXXXXXXXXXXXX.&bBNNNNNNNNNNNNNNNNNNNNNNNNNNNNNN",
"VNNNNNNNNNNNNNNNNNNNNNNNNNNNNNNNNNNNNBMd:XXXXXXXXXXXXXXXXaCNNNNNNNNNNNNNNNNBt+ XXXXXXXXXXXXXXX <MNNNNNNNNNNNNNNNNNNNNNNNNNNNNNNV",
"NNNNNNNNNNNNNNNNNNNNNNNNNNNNNNNNNNNBNk4OXXXXXXXXXXXXXXXXXaBNNNNNNNNNNNNNNNBj$ XXXXXXXXXXXXXXXX 0BNNNNNNNNNNNNNNNNNNNNNNNNNNNNNNN",
"VNNNNNNNNNNNNNNNNNNNNNNNNNNNNNNNNNBc9#  XXXXXXXXXXXXXXXXoaCNNNNNNNNNNNNNNBk- XXXXXXXXXXXXXXXXXOfBNNNNNNNNNNNNNNNNNNNNNNNNNNNNNNV",
"VNNNNNNNNNNNNNNNNNNNNNNNNNNNNNNNBmi*X XXXXXXXXXXX.XXXXXXXaCNNNNNNNNNNNNBMp& XXXXXXXXXXXXXXXX  =nNNNNNNNNNNNNNNNNNNNNNNNNNNNNNNNV",
"NNNNNNNNNNNNNNNNNNNNNNNNNNNNNNNMf>X XXXXXXXXXXXXXXXXXXXX.pBMBNNNNNNBMbli>O XXXXXXXXXXXXXXXXXX qNNNNNNNNNNNNNNNNNNNNNNNNNNNNNNNNN",
"NNNNNNNNNNNNNNNNNNNNNNNNNNNNNNl5OXXXX XXXXXXXXXXXXXXXXXX.=5455rbBBnt<*@X XXXXXXXXXX XXXXXXXX #lBNNNNNNNNNNNNNNNNNNNNNNNNNNNNNNNN",
"NNNNNNNNNNNNNNNNNNNNNNNNNNNNvw$ XXXXXXXXXXXXXXXXXXXXXXXX..  +9cNMd:o  XXXXXXXXXXXXXXXXXXXXXX 8NNNNNNNNNNNNNNNNNNNNNNNNNNNNNNNNNN",
"NNNNNNNNNNNNNNNNNNNNNNNNNCMp-X XXXXXXXXXXXXXXXXXXXXXXXXX.XO3kBBk4O XXXXXXXXXXXXXXXXXXXXXXXX &cBNNNNNNNNNNNNNNNNNNNNNNNNNNNNNNNNN",
"NNNNNNNNNNNNNNNNNNNNNNNNMg<o XXXXXXXXXXXX XXXXXXXXXXXXXXX:dNBcq# XXXXXXXXXXXXXXXXXXXXXXXXX ouBNNNNNNNNNNNNNNNNNNNNNNNNNNNNNNNNNN",
"NNNNNNNNNNNNNNNNNNNNNNNc6@XXX XXXXXXXXXXXXXXXXX XXXXXX %rnCmi=X XXXXXXXXXXXXXXXXXXXXXXXXXXX6MNNNNNNNNNNNNNNNNNNNNNNNNNNNNNNNNNNN",
"NNNNNNNNNNNNNNNNNNNNCbe% XXXXXXXXXXXXXXXXXXXXXXXXXX X@7cCMf>X XXXXXXXXX XXXXXXXXXXXXXXXXX <bBNNNNNNNNNNNNNNNNNNNNNNNNNNNNNNNNNNN",
"NNNNNNNNNNNNNNNNNNNms-X XXXXXXXXXXXXXXXXXXXXXXXXXX o1hNCl5+XXXXXXXXXXXXXXXXXXXXXXXXXXXXX :cNNNNNNNNNNNNNNNNNNNNNNNNNNNNNNNNNNNNN",
"ZNNNNNNNNNNNNNNNNNNeo  XXXXXXXXXXXXXXXXXXXXXXXXX X;aMCbw$XXXXXXXXXXXXXXXX XXXXXXXXXXXXX ,cNNNNNNNNNNNNNNNNNNNNNNNNNNNNNNNNNNNNNZ",
"ZNNNNNNNNNNNNNNNNNNz: XXXXXXXXXXXXXXXXXXXXXXXXXX%wbCmp-.XXXXXXXXXXXXXXXXXXXXXXXXXXXXX X5vBNNNNNNNNNNNNNNNNNNNNNNNNNNNNNNNNNNNNNZ",
"ZNNNNNNNNNNNNNNNNNNBz: XXXXXXXXXXXXXXXXXXXXXXX+7lBNg1o .XXXXXXXXXXXXXXXXXXXXXXXXXXXX #rmBNNNNNNNNNNNNNNNNNNNNNNNNNNNNNNNNNNNNNNZ",
"ZNNNNNNNNNNNNNNNNNNNNc: XXXXXXXXXXXXXXXXXXXXo,fMCz7@X.X.XXXXXXXXXXXXXXXXXXXXXXXXX  o1jNBNNNNNNNNNNNNNNNNNNNNNNNNNNNNNNNNNNNNNNNZ",
"ZNNNNNNNNNNNNNNNNNNNNCc:XXXXXXXXXXXXXXXXXXX=umCbe%  XXXXXXXXXXXXXXXXXXXXXXXXXXX  o>amNNNNNNNNNNNNNNNNNNNNNNNNNNNNNNNNNNNNNNNNNNZ",
"ZVNNNNNNNNNNNNNNNNNNNNNz:XXXXXXXXXXXXXX  $9vCMs;X XXXXXXXXXXXXXXXXXXXXXXXXXX  X@3dmBBNNNNNNNNNNNNNNNNNNNNNNNNNNNNNNNNNNNNNNNNNVZ",
"ZZNNNNNNNNNNNNNNNNNNNNNNz: XXXXXXXXXXX O4lNNj3OXXXXXXXXXXXXXXXXXXXXXXXXX  Xo&1tlMBNNNNNNNNNNNNNNNNNNNNNNNNNNNNNNNNNNNNNNNNNNNNZZ",
"ZZVNNNNNNNNNNNNNNNNNNNNNBz: XXXXXXXX.X>dMCc9@ XXXXXXXXXXXXXXoXXXoXXXo+@*:4efvMBCNNNNNNNNNNNNNNNNNNNNNNNNNNNNNNNNNNNNNNNNNNNNNVZZ",
"ZZNNNNNNNNNNNNNNNNNNNNNNNBc: XXXXXXX*tnCnt&XXXXXXXXXXXXX 3saaaaaaaddgkcbmNBBBNNNNNNNNNNNNNNNNNNNNNNNNNNNNNNNNNNNNNNNNNNNNNNNNNZZ",
"ZZVNNNNNNNNNNNNNNNNNNNNNNNNz: XXXX@9cCMf>XXXXXXXXXXXXXXXXaCCBBCCCCBBBBBNNNNNNNNNNNNNNNNNNNNNNNNNNNNNNNNNNNNNNNNNNNNNNNNNNNNNNNZZ",
"ZZZNNNNNNNNNNNNNNNNNNNNNNNNBc:  o3jNNn6OXXXXXXXXXXXXXXXXXaCMNNNNNNNNNNNNNNNNNNNNNNNNNNNNNNNNNNNNNNNNNNNNNNNNNNNNNNNNNNNNNNNNNZZZ",
"ZZZVNNNNNNNNNNNNNNNNNNNNNNNNBc:-sMBNNc# XXXXXXXXXXXXXXXXXaCNNNNNNNNNNNNNNNNNNNNNNNNNNNNNNNNNNNNNNNNNNNNNNNNNNNNNNNNNNNNNNNNNNZZZ",
"ZZZVNNNNNNNNNNNNNNNNNNNNNNNNNBbnBNNNBc$XXXXXXXXXXXXXXXXXoaCNNNNNNNNNNNNNNNNNNNNNNNNNNNNNNNNNNNNNNNNNNNNNNNNNNNNNNNNNNNNNNNNNVZZZ",
"ZZZZNNNNNNNNNNNNNNNNNNNNNNNNNNNNNNNNNc$ XXXXXXXXXXXXXXXXXaBNNNNNNNNNNNNNNNNNNNNNNNNNNNNNNNNNNNNNNNNNNNNNNNNNNNNNNNNNNNNNNNNNZZZZ",
"ZZZZNNNNNNNNNNNNNNNNNNNNNNNNNNNNNNNNBc$ XXXXXXXXXXXXXXXXXaCNNNNNNNNNNNNNNNNNNNNNNNNNNNNNNNNNNNNNNNNNNNNNNNNNNNNNNNNNNNNNNNNNZZZZ",
"ZZZZVNNNNNNNNNNNNNNNNNNNNNNNNNNNNNNNBc$XXXXXXXXXXXXXXXXXXsCNNNNNNNNNNNNNNNNNNNNNNNNNNNNNNNNNNNNNNNNNNNNNNNNNNNNNNNNNNNNNNNNVZZZZ",
"ZZZZZVNNNNNNNNNNNNNNNNNNNNNNNNNNNNNNNc# XXXXXXXXXXXXXXXXXaCNNNNNNNNNNNNNNNNNNNNNNNNNNNNNNNNNNNNNNNNNNNNNNNNNNNNNNNNNNNNNNNNZZZZZ",
"ZZZZZVNNNNNNNNNNNNNNNNNNNNNNNNNNNNNNNc$XXXXXXXXXXXXXXXXXXaBNNNNNNNNNNNNNNNNNNNNNNNNNNNNNNNNNNNNNNNNNNNNNNNNNNNNNNNNNNNNNNNVZZZZZ",
"ZZZZZZNNNNNNNNNNNNNNNNNNNNNNNNNNNNNNBc$XX XXXXXXXXXXXXXXXaCNNNNNNNNNNNNNNNNNNNNNNNNNNNNNNNNNNNNNNNNNNNNNNNNNNNNNNNNNNNNNNNZZZZZZ",
"ZZZZZZNNNNNNNNNNNNNNNNNNNNNNNNNNNNNNNc#XXXXXXXXXXXXXXXXXXaCNNNNNNNNNNNNNNNNNNNNNNNNNNNNNNNNNNNNNNNNNNNNNNNNNNNNNNNNNNNNNNVZZZZZZ",
"ZZZZZZZNNNNNNNNNNNNNNNNNNNNNNNNNNNNNNc$XXXXXXXXXXXXXXXXXoaCNNNNNNNNNNNNNNNNNNNNNNNNNNNNNNNNNNNNNNNNNNNNNNNNNNNNNNNNNNNNNNZZZZZZZ",
"ZZZZZZZNNNNNNNNNNNNNNNNNNNNNNNNNNNNNBc$XXXXXXXXXXXXXXXXXXaCNNNNNNNNNNNNNNNNNNNNNNNNNNNNNNNNNNNNNNNNNNNNNNNNNNNNNNNNNNNNNVZZZZZZZ",
"ZZZZZZZZNNNNNNNNNNNNNNNNNNNNNNNNNNNNNc# XXXXX XX.XXXXX.XXaCNNNNNNNNNNNNNNNNNNNNNNNNNNNNNNNNNNNNNNNNNNNNNNNNNNNNNNNNNNNNNZZZZZZZZ",
"ZZZZZZZZNNNNNNNNNNNNNNNNNNNNNNNNNNNNNc$ XXXXXXXXXXXXXXX.-kNNNNNNNNNNNNNNNNNNNNNNNNNNNNNNNNNNNNNNNNNNNNNNNNNNNNNNNNNNNNNVZZZZZZZZ",
"ZZZZZZZZZVNNNNNNNNNNNNNNNNNNNNNNNNNNNc$.XXXXXXXX.XXXX $wbNNNNNNNNNNNNNNNNNNNNNNNNNNNNNNNNNNNNNNNNNNNNNNNNNNNNNNNNNNNNNVZZZZZZZZZ",
"ZZZZZZZZZZNNNNNNNNNNNNNNNNNNNNNNNNNNBc$ XXXXXXXXXXX.+6lBNNNNNNNNNNNNNNNNNNNNNNNNNNNNNNNNNNNNNNNNNNNNNNNNNNNNNNNNNNNNNNZZZZZZZZZZ",
"ZZZZZZZZZZNNNNNNNNNNNNNNNNNNNNNNNNNNNc$ XXXXXX..X.o,gMCNNNNNNNNNNNNNNNNNNNNNNNNNNNNNNNNNNNNNNNNNNNNNNNNNNNNNNNNNNNNNNNZZZZZZZZZZ",
"ZZZZZZZZZZZNNNNNNNNNNNNNNNNNNNNNNNNNBc$ XXXXXXX..=inBNNNNNNNNNNNNNNNNNNNNNNNNNNNNNNNNNNNNNNNNNNNNNNNNNNNNNNNNNNNNNNNNZZZZZZZZZZZ",
"ZZZZZZZZZZZVNNNNNNNNNNNNNNNNNNNNNNNNBc$ XXXXXX.$qvCNNNNNNNNNNNNNNNNNNNNNNNNNNNNNNNNNNNNNNNNNNNNNNNNNNNNNNNNNNNNNNNNNVZZZZZZZZZZZ",
"ZZZZZZZZZZZZNNNNNNNNNNNNNNNNNNNNNNNNNc$ XXXX +4kNNNNNNNNNNNNNNNNNNNNNNNNNNNNNNNNNNNNNNNNNNNNNNNNNNNNNNNNNNNNNNNNNNNNZZZZZZZZZZZZ",
"ZZZZZZZZZZZZZVNNNNNNNNNNNNNNNNNNNNNNBc$ XX.X:dNBNNNNNNNNNNNNNNNNNNNNNNNNNNNNNNNNNNNNNNNNNNNNNNNNNNNNNNNNNNNNNNNNNNNZZZZZZZZZZZZZ",
"ZZZZZZZZZZZZZZNNNNNNNNNNNNNNNNNNNNNNBc$ . &tnBNNNNNNNNNNNNNNNNNNNNNNNNNNNNNNNNNNNNNNNNNNNNNNNNNNNNNNNNNNNNNNNNNNNNZZZZZZZZZZZZZZ",
"ZZZZZZZZZZZZZZZNNNNNNNNNNNNNNNNNNNNNBc$ @9cBNNNNNNNNNNNNNNNNNNNNNNNNNNNNNNNNNNNNNNNNNNNNNNNNNNNNNNNNNNNNNNNNNNNNNZZZZZZZZZZZZZZZ",
"ZZZZZZZZZZZZZZZVNNNNNNNNNNNNNNNNNNNNBc&1hNBNNNNNNNNNNNNNNNNNNNNNNNNNNNNNNNNNNNNNNNNNNNNNNNNNNNNNNNNNNNNNNNNNNNNNVZZZZZZZZZZZZZZZ",
"ZZZZZZZZZZZZZZZZNNNNNNNNNNNNNNNNNNNNNngMBNNNNNNNNNNNNNNNNNNNNNNNNNNNNNNNNNNNNNNNNNNNNNNNNNNNNNNNNNNNNNNNNNNNNNNNZZZZZZZZZZZZZZZZ",
"ZZZZZZZZZZZZZZZZZNNNNNNNNNNNNNNNNNNNNNBNNNNNNNNNNNNNNNNNNNNNNNNNNNNNNNNNNNNNNNNNNNNNNNNNNNNNNNNNNNNNNNNNNNNNNNVZZZZZZZZZZZZZZZZZ",
"ZZZZZZZZZZZZZZZZZZVNNNNNNNNNNNNNNNNNNNNNNNNNNNNNNNNNNMNNNNNNNNNNNNNNNNNNNNNNNNNNNNNNNNNNNNNNNNNNNNNNNNNNNNNNNNZZZZZZZZZZZZZZZZZZ",
"ZZZZZZZZZZZZZZZZZZZNNNNNNNNNNNNNNNNNNNNNNNNNNNNNNNNNNNNNNNNNNNNNNNNNNNNNNNNNNNNNNNNNNNNNNNNNNNNNNNNNNNNNNNNNNZZZZZZZZZZZZZZZZZZZ",
"ZZZZZZZZZZZZZZZZZZZZNNNNNNNNNNNNNNNNNNNNNNNNNNNNNNNNNNNNNNNNNNNNNNNNNNNNNNNNNNNNNNNNNNNNNNNNNNNNNNNNNNNNNNNNZZZZZZZZZZZZZZZZZZZZ",
"ZZZZZZZZZZZZZZZZZZZZZNNNNNNNNNNNNNNNNNNNNNNNNNNNNNNNNNNNNNNNNNNNNNNNNNNNNNNNNNNNNNNNNNNNNNNNNNNNNNNNNNNNNNNZZZZZZZZZZZZZZZZZZZZZ",
"ZZZZZZZZZZZZZZZZZZZZZZVNNNNNNNNNNNNNNNNNNNNNNNNNNNNNNNNNNNNNNNNNNNNNNNNNNNNNNNNNNNNNNNNNNNNNNNNNNNNNNNNNNVZZZZZZZZZZZZZZZZZZZZZZ",
"ZZZZZZZZZZZZZZZZZZZZZZZZNNNNNNNNNNNNNNNNNNNNNNNNNNNNNNNNNNNNNNNNNNNNNNNNNNNNNNNNNNNNNNNNNNNNNNNNNNNNNNNNZZZZZZZZZZZZZZZZZZZZZZZZ",
"ZZZZZZZZZZZZZZZZZZZZZZZZZNNNNNNNNNNNNNNNNNNNNNNNNNNNNNNNNNNNNNNNNNNNNNNNNNNNNNNNNNNNNNNNNNNNNNNNNNNNNNNZZZZZZZZZZZZZZZZZZZZZZZZZ",
"ZZZZZZZZZZZZZZZZZZZZZZZZZZVNNNNNNNNNNNNNNNNNNNNNNNNNNNNNNNNNNNNNNNNNNNNNNNNNNNNNNNNNNNNNNNNNNNNNNNNNNNZZZZZZZZZZZZZZZZZZZZZZZZZZ",
"ZZZZZZZZZZZZZZZZZZZZZZZZZZZVNNNNNNNNNNNNNNNNNNNNNNNNNNNNNNNNNNNNNNNNNNNNNNNNNNNNNNNNNNNNNNNNNNNNNNNVVZZZZZZZZZZZZZZZZZZZZZZZZZZZ",
"ZZZZZZZZZZZZZZZZZZZZZZZZZZZZZVNNNNNNNNNNNNNNNNNNNNNNNNNNNNNNNNNNNNNNNNNNNNNNNNNNNNNNNNNNNNNNNNNNNNNZZZZZZZZZZZZZZZZZZZZZZZZZZZZZ",
"ZZZZZZZZZZZZZZZZZZZZZZZZZZZZZZZNNNNNNNNNNNNNNNNNNNNNNNNNNNNNNNNNNNNNNNNNNNNNNNNNNNNNNNNNNNNNNNNNVZZZZZZZZZZZZZZZZZZZZZZZZZZZZZZZ",
"ZZZZZZZZZZZZZZZZZZZZZZZZZZZZZZZZVNNNNNNNNNNNNNNNNNNNNNNNNNNNNNNNNNNNNNNNNNNNNNNNNNNNNNNNNNNNNNNNZZZZZZZZZZZZZZZZZZZZZZZZZZZZZZZZ",
"ZZZZZZZZZZZZZZZZZZZZZZZZZZZZZZZZZZVNNNNNNNNNNNNNNNNNNNNNNNNNNNNNNNNNNNNNNNNNNNNNNNNNNNNNNNNNNNZZZZZZZZZZZZZZZZZZZZZZZZZZZZZZZZZZ",
"ZZZZZZZZZZZZZZZZZZZZZZZZZZZZZZZZZZZZNNNNNNNNNNNNNNNNNNNNNNNNNNNNNNNNNNNNNNNNNNNNNNNNNNNNNNNVZZZZZZZZZZZZZZZZZZZZZZZZZZZZZZZZZZZZ",
"ZZZZZZZZZZZZZZZZZZZZZZZZZZZZZZZZZZZZZZVNNNNNNNNNNNNNNNNNNNNNNNNNNNNNNNNNNNNNNNNNNNNNNNNNNVZZZZZZZZZZZZZZZZZZZZZZZZZZZZZZZZZZZZZZ",
"ZZZZZZZZZZZZZZZZZZZZZZZZZZZZZZZZZZZZZZZZVNNNNNNNNNNNNNNNNNNNNNNNNNNNNNNNNNNNNNNNNNNNNNNVZZZZZZZZZZZZZZZZZZZZZZZZZZZZZZZZZZZZZZZZ",
"ZZZZZZZZZZZZZZZZZZZZZZZZZZZZZZZZZZZZZZZZZZZVVNNNNNNNNNNNNNNNNNNNNNNNNNNNNNNNNNNNNNNVVZZZZZZZZZZZZZZZZZZZZZZZZZZZZZZZZZZZZZZZZZZZ",
"ZZZZZZZZZZZZZZZZZZZZZZZZZZZZZZZZZZZZZZZZZZZZZZVNNNNNNNNNNNNNNNNNNNNNNNNNNNNNNNNNNVZZZZZZZZZZZZZZZZZZZZZZZZZZZZZZZZZZZZZZZZZZZZZZ",
"ZZZZZZZZZZZZZZZZZZZZZZZZZZZZZZZZZZZZZZZZZZZZZZZZZZVVNNNNNNNNNNVNNNNNNNNNNNNVNVZZZZZZZZZZZZZZZZZZZZZZZZZZZZZZZZZZZZZZZZZZZZZZZZZZ",
"ZZZZZZZZZZZZZZZZZZZZZZZZZZZZZZZZZZZZZZZZZZZZZZZZZZZZZZZZVVNVNVVVVVVNNNVVZZZZZZZZZZZZZZZZZZZZZZZZZZZZZZZZZZZZZZZZZZZZZZZZZZZZZZZZ"
};
