/* XPM */
static char *_00c4627d34f4c44cdc70eec60d69ae5[] = {
/* columns rows colors chars-per-pixel */
"16 16 85 1 ",
"  c #15151A",
". c #15161A",
"X c #16161A",
"o c #17171A",
"O c #18181A",
"+ c gray10",
"@ c #1C1C1A",
"# c #1F1F1A",
"$ c #21201A",
"% c #21211A",
"& c #25241A",
"* c #25251A",
"= c #28281A",
"- c #2A291A",
"; c #2A2A1A",
": c #2D2C1A",
"> c #2E2D1A",
", c #302F1A",
"< c #31301A",
"1 c #33321A",
"2 c #353419",
"3 c #3A3819",
"4 c #3B3919",
"5 c #454219",
"6 c #454319",
"7 c #474519",
"8 c #494619",
"9 c #4C4A19",
"0 c #4D4A19",
"q c #555219",
"w c #595619",
"e c #5A5619",
"r c #605D19",
"t c #635F19",
"y c #757018",
"u c #787318",
"i c #797418",
"p c #7B7618",
"a c #7F7A18",
"s c #807B18",
"d c #8D8718",
"f c #928C18",
"g c #9C9618",
"h c #AAA217",
"j c #ABA417",
"k c #AFA817",
"l c #B1AA17",
"z c #B5AE17",
"x c #B6AF17",
"c c #B8B017",
"v c #B8B117",
"b c #BAB217",
"n c #BCB417",
"m c #BDB517",
"M c #C0B817",
"N c #C1B917",
"B c #C3BB17",
"V c #C4BC17",
"C c #CBC317",
"Z c #D2C917",
"A c #D4CB17",
"S c #DBD116",
"D c #DCD216",
"F c #DDD416",
"G c #DED416",
"H c #DFD516",
"J c #E3D916",
"K c #E6DC16",
"L c #E7DD16",
"P c #E9DE16",
"I c #F0E516",
"U c #F1E616",
"Y c #F4EA16",
"T c #F6EB16",
"R c #F7EB16",
"E c #F7EC16",
"W c #F8EC16",
"Q c #F8ED16",
"! c #F9EE16",
"~ c #FAEE16",
"^ c #FAEF16",
"/ c #FBEF16",
"( c #FCF116",
") c #FFF316",
"_ c None",
/* pixels */
"_____TTTTTT_____",
"___TTTTTTTTTT___",
"__TTTQQQQQQQQT__",
"_TTQAiiipgHnmTT_",
"_TEQx+  &7e&>MQ_",
"TTQQx@&fmr >sFQT",
"TTTQb4eA)l7rHQTT",
"TTQTl5-MUg<4HTTT",
"EQSi-+2yq@osTTTT",
"EQM<&071>7dLTTTT",
"TTTVf<$hFLQRTTTT",
"_TT/b+=CQQTTTTT_",
"_TTQb9hUTTTTTTT_",
"__EEKJQTTTTTTT__",
"___TQTTTTTTTT___",
"_____TTTTTT_____"
};
